<?xml version="1.0" encoding="utf-8" ?>
<svg xmlns="http://www.w3.org/2000/svg" xmlns:xlink="http://www.w3.org/1999/xlink" width="1024" height="1024">
	<path fill="#036DFE" d="M495.226 87.207C502.581 86.669 510.164 86.8858 517.536 86.9804C548.838 87.3818 579.7 92.3964 609.832 100.736C705.579 127.237 787.42 195.773 835.641 281.906C882.518 365.638 894.085 471.182 868.158 563.444C841.352 658.833 776.067 744.468 689.307 793.089C613.695 835.463 525.659 851.06 440.469 833.633C426.735 830.823 413.145 827.019 399.799 822.745C393.09 820.596 386.634 817.885 379.841 815.974L374.323 819.282L208.676 934.483C203.549 937.387 197.684 938.119 192 936.467C186.521 934.874 182.082 930.839 179.518 925.797C177.572 921.97 177.111 918.226 177.85 914.04C179.427 905.112 182.981 896.392 185.705 887.763C189.501 875.742 193.003 863.608 196.658 851.541C205.611 821.981 214.872 792.509 223.9 762.971C228.673 747.356 232.982 731.568 237.988 716.031C228.56 705.711 219.99 694.339 211.901 682.958C168.672 622.134 144.335 549.912 140.747 475.46C136.09 378.811 171.066 281.908 236.15 210.469C302.711 137.408 396.292 91.7434 495.226 87.207Z"/>
	<path fill="#FEFEFE" d="M406.269 460.93C409.267 462.7 411.502 465.704 413.976 468.12C440.861 494.38 476.555 509.97 514.36 509.213C543.217 508.635 573.069 499.121 595.701 480.886C603.383 474.697 610.043 467.482 616.865 460.389L608.208 474.73C594.341 494.408 576.678 512.166 553.812 521.031C524.822 532.269 495.216 532.15 466.755 519.499C445.207 509.921 428.224 493.64 414.747 474.612C411.748 470.378 408.143 465.801 406.269 460.93Z"/>
	<path fill="#FEFEFE" d="M616.831 159.803C617.534 160.456 617.505 160.289 617.844 160.963C621.941 169.116 623.989 178.725 626.257 187.522C630.021 202.121 633.262 217.096 634.979 232.088C638.161 259.855 637.09 287.667 637.061 315.538C637.029 345.67 639.051 376.719 629.342 405.719C619.235 435.906 595.762 461.645 567.263 475.596C536.552 490.63 503.429 492.266 471.208 481.222C439.71 470.426 414.518 444.873 400.011 415.439C394.343 402.468 390.468 389.546 388.804 375.437C387.814 367.042 387.978 358.451 387.972 350.008C387.964 338.725 388.007 327.44 387.935 316.157C387.789 293.402 387.043 270.695 388.299 247.952C389.077 233.86 391.142 220.185 393.603 206.306C396.429 190.364 399.671 175.053 405.1 159.752C414.533 182.086 422.442 204.977 433.345 226.678C435.526 231.019 437.788 236.796 441.405 240.115C442.394 241.023 443.657 241.721 445 241.881C452.219 242.743 459.762 242.118 467.013 242.023C476.589 241.896 486.178 241.979 495.755 241.974C514.935 241.964 534.116 241.959 553.297 241.974C561.363 241.981 569.537 242.446 577.579 242.163C581.672 238.713 584.362 233.661 586.839 228.992C591.287 220.605 595.054 211.819 598.782 203.098C604.929 188.716 610.768 174.218 616.831 159.803Z"/>
	<path fill="#036DFE" d="M571.821 354.657C583.216 353.084 595.485 355.753 606.665 357.781L602.631 366.134C595.995 378.642 583.752 384.398 570.834 388.239C561.237 389.945 550.63 388.184 542.139 383.426C539.672 382.044 536.721 379.866 536.107 376.936C535.678 374.892 536.661 373.236 537.847 371.65C545.956 360.802 559.04 356.661 571.821 354.657Z"/>
	<path fill="#036DFE" d="M440.332 354.704C444.981 354.248 450.452 354.141 455.076 354.752L460.5 355.58C473.58 358.377 482.323 365.754 489.524 376.675C482.987 383.535 476.461 386.215 467.404 388.357C458.725 389.522 450.453 388.831 442.384 385.271C430.11 379.857 421.398 369.875 416.643 357.498L440.332 354.704Z"/>
	<path fill="#FEFEFE" d="M653.251 481.285C667.124 489.584 680.864 497.961 693.895 507.558C718.524 525.696 740.611 547.514 759.362 571.662C765.856 580.025 771.7 588.951 777.607 597.731L746.348 637.15C704.012 682.051 649.906 715.354 589.869 730.498C566.651 736.355 542.183 739.309 518.25 739.935C449.242 741.737 378.745 718.222 323.059 677.758C309.103 667.617 296.602 656.283 284.15 644.383L246.283 598.755C253.783 584.419 264.121 571.081 274.776 558.946C302.027 527.908 334.189 503.17 369.69 482.248L512.044 665.457L653.251 481.285Z"/>
</svg>
