<svg width="24" height="24" viewBox="0 0 24 24" fill="none" xmlns="http://www.w3.org/2000/svg">
<path d="M12.1429 23.2857C18.2969 23.2857 23.2857 18.2969 23.2857 12.1429C23.2857 5.98883 18.2969 1 12.1429 1C5.98883 1 1 5.98883 1 12.1429C1 18.2969 5.98883 23.2857 12.1429 23.2857Z" stroke="#7D848D" stroke-linecap="round" stroke-linejoin="round"/>
<path d="M12.1428 13C12.6162 13 12.9999 12.6162 12.9999 12.1428C12.9999 11.6695 12.6162 11.2857 12.1428 11.2857C11.6694 11.2857 11.2856 11.6695 11.2856 12.1428C11.2856 12.6162 11.6694 13 12.1428 13Z" stroke="#7D848D" stroke-linecap="round" stroke-linejoin="round"/>
<path d="M7.00021 13C7.4736 13 7.85735 12.6162 7.85735 12.1428C7.85735 11.6695 7.4736 11.2857 7.00021 11.2857C6.52682 11.2857 6.14307 11.6695 6.14307 12.1428C6.14307 12.6162 6.52682 13 7.00021 13Z" stroke="#7D848D" stroke-linecap="round" stroke-linejoin="round"/>
<path d="M17.2859 13C17.7592 13 18.143 12.6162 18.143 12.1428C18.143 11.6695 17.7592 11.2857 17.2859 11.2857C16.8125 11.2857 16.4287 11.6695 16.4287 12.1428C16.4287 12.6162 16.8125 13 17.2859 13Z" stroke="#7D848D" stroke-linecap="round" stroke-linejoin="round"/>
</svg>