<svg width="24" height="24" viewBox="0 0 24 24" fill="none" xmlns="http://www.w3.org/2000/svg">
<path fill-rule="evenodd" clip-rule="evenodd" d="M12 19.5C7.85786 19.5 4.5 16.1421 4.5 12C4.5 7.85786 7.85786 4.5 12 4.5C16.1421 4.5 19.5 7.85786 19.5 12C19.5 16.1421 16.1421 19.5 12 19.5ZM12 18.75C15.7279 18.75 18.75 15.7279 18.75 12C18.75 8.27208 15.7279 5.25 12 5.25C8.27208 5.25 5.25 8.27208 5.25 12C5.25 15.7279 8.27208 18.75 12 18.75ZM11.9911 17.25C9.31815 17.25 6.78131 14.6863 6.78131 12.8336C6.78131 11.7703 9.09162 13.05 11.9911 13.05C14.8906 13.05 17.2264 11.772 17.2187 12.8336C17.2056 14.629 14.6641 17.25 11.9911 17.25ZM11.9911 14.8875C14.4764 14.8875 16.1956 13.9267 16.1956 13.2339C16.1956 12.541 14.4764 13.647 11.9911 13.647C9.50584 13.647 7.81514 12.6737 7.81514 13.2339C7.81514 13.794 9.50584 14.8875 11.9911 14.8875ZM9.74063 10.6687C9.24875 10.6687 8.85 10.27 8.85 9.77811C8.85 9.28623 9.24875 8.88748 9.74063 8.88748C10.2325 8.88748 10.6313 9.28623 10.6313 9.77811C10.6313 10.27 10.2325 10.6687 9.74063 10.6687ZM14.2406 10.6687C13.7487 10.6687 13.35 10.27 13.35 9.77811C13.35 9.28623 13.7487 8.88748 14.2406 8.88748C14.7325 8.88748 15.1313 9.28623 15.1313 9.77811C15.1313 10.27 14.7325 10.6687 14.2406 10.6687Z" fill="#7D848D"/>
</svg>