<?xml version="1.0" encoding="utf-8" ?>
<svg xmlns="http://www.w3.org/2000/svg" xmlns:xlink="http://www.w3.org/1999/xlink" width="1024" height="1024">
	<path fill="#0C6FFE" d="M332.304 370.198C346.986 369.277 363.727 374.975 374.945 384.43C387.201 394.76 396.605 410.152 398.045 426.33C399.431 441.894 395.374 458.369 385.369 470.625C373.345 485.352 358.811 493.041 340.051 495.038C324.403 496.291 309.054 491.891 296.854 481.939C283.091 470.711 274.023 455.494 272.315 437.706C270.833 422.287 274.82 406.009 284.937 394.023C297.224 379.466 313.472 371.868 332.304 370.198Z"/>
	<path fill="#0C6FFE" d="M667.573 498.474C669.052 498.373 670.867 498.249 672.308 498.612C673.725 498.969 675.192 500.227 676.25 501.189C683.285 507.586 689.883 514.626 696.608 521.348C708.669 533.403 720.728 545.461 732.761 557.543C746.684 571.521 760.562 585.544 774.511 599.495C781.455 606.441 788.699 613.178 795.432 620.321C797.433 622.444 799.088 624.67 800.664 627.121L800.603 704.584L509.875 704.853L401.108 704.94L554.804 552.814C559.769 560.048 567.948 574.456 576.896 576.586C579.84 577.287 583.544 577.423 586.312 576.101C593.475 572.681 599.906 564.619 605.463 558.996C617.76 546.552 630.163 534.211 642.513 521.821C646.826 517.494 651.116 513.144 655.422 508.81C659.059 505.15 662.486 501.531 666.944 498.849L667.573 498.474Z"/>
	<path fill="#0C6FFE" d="M875.03 231.375L878.164 234.268C893.428 249.387 903.545 265.846 907.99 287.018C911.84 305.362 910.44 324.886 910.44 343.548C910.441 368.292 910.421 393.036 910.412 417.779C910.378 512.58 910.371 607.381 910.547 702.182C910.565 711.817 910.663 721.418 909.455 731C906.677 753.038 897.153 774.175 881.405 789.938C868.902 802.454 852.766 811.259 835.208 814.092C829.779 814.968 823.987 814.54 818.488 814.541C808.843 814.542 799.198 814.539 789.552 814.535C756.358 814.519 723.165 814.573 689.97 814.622C563.084 814.808 436.194 814.478 309.307 814.439L290.563 814.935L354.844 750.927C470.625 750.105 586.425 750.372 702.208 750.466C729.002 750.487 755.797 750.402 782.591 750.485C791.692 750.513 800.794 750.556 809.896 750.539C815.479 750.529 821.561 750.997 826.991 749.671C834.8 747.765 841.343 742.411 845.25 735.437C847.178 731.995 848.149 728.176 848.323 724.25C849.46 698.577 848.307 672.458 848.291 646.749C848.259 594.902 848.309 543.055 848.313 491.209C848.317 448.156 848.296 405.102 848.313 362.049C848.318 349.843 848.347 337.637 848.387 325.431C848.419 315.613 849.789 303.54 846.915 294.127C844.245 285.381 838.9 279.582 830.939 275.388L875.03 231.375Z"/>
	<path fill="#0C6FFE" d="M516.642 207.75L733.653 207.642L663.764 276.893C660.204 273.471 657.13 270.642 651.879 270.601C548.911 269.784 445.865 270.486 342.89 270.503C310.639 270.509 278.387 270.518 246.136 270.54C236.324 270.546 226.511 270.553 216.699 270.564C211.814 270.569 206.561 270.18 201.732 270.733C195.033 271.499 188.603 274.942 183.877 279.687C179.504 284.077 176.21 289.709 175.463 295.949C174.832 301.222 175.234 306.416 175.346 311.698C175.469 317.491 175.419 323.298 175.431 329.094C175.477 352.99 175.451 376.886 175.436 400.781C175.385 481.771 175.322 562.76 175.423 643.75C175.461 659.698 175.416 675.646 175.401 691.595C175.39 704.115 174.445 717.316 177.229 729.593C179.137 738.007 182.584 745.511 188.17 752.104L147.525 792.575C130.145 776.998 118.12 758.858 113.98 735.555C111.764 723.079 112.189 710.361 112.123 697.737C112.041 681.774 112.025 665.81 112.013 649.846C111.97 592.968 112.152 536.094 112.249 479.216C112.319 437.922 112.327 396.627 112.289 355.333C112.27 334.33 110.491 312.469 112.901 291.608C114.708 275.967 120.072 261.153 129.183 248.248C143.272 228.292 165.152 213.813 189.25 209.353C200.854 207.206 213.339 208.042 225.112 207.929C247.708 207.713 270.307 207.811 292.904 207.825C367.484 207.873 442.063 207.827 516.642 207.75Z"/>
	<path fill="#0C6FFE" d="M865.21 113.817C866.667 114.624 867.915 116.272 869.072 117.477C871.682 120.194 874.309 122.893 876.982 125.548C888.189 136.678 899.498 147.708 910.767 158.775L158.912 909.417L113.287 863.908L865.21 113.817Z"/>
</svg>
