<svg width="17" height="17" viewBox="0 0 17 17" fill="none" xmlns="http://www.w3.org/2000/svg">
<g clip-path="url(#clip0_8_507)">
<path d="M13.3569 10.9286L15.7855 10.3214L16.3926 12.75" stroke="#7D848D" stroke-linecap="round" stroke-linejoin="round"/>
<path d="M15.7857 10.3214C15.2463 11.8498 14.2666 13.1842 12.9701 14.1566C11.6735 15.129 10.1181 15.6959 8.49994 15.7857C7.00408 15.786 5.54439 15.3258 4.31913 14.4677C3.09388 13.6096 2.16245 12.3951 1.65137 10.9893" stroke="#7D848D" stroke-linecap="round" stroke-linejoin="round"/>
<path d="M3.64265 6.07143L1.21408 6.67857L0.606934 4.25" stroke="#7D848D" stroke-linecap="round" stroke-linejoin="round"/>
<path d="M1.21387 6.67858C2.23387 3.88572 5.36672 1.21429 8.49958 1.21429C10.0027 1.21852 11.4678 1.68757 12.6939 2.55714C13.92 3.42672 14.8471 4.65425 15.3482 6.07144" stroke="#7D848D" stroke-linecap="round" stroke-linejoin="round"/>
</g>
<defs>
<clipPath id="clip0_8_507">
<rect width="17" height="17" fill="white"/>
</clipPath>
</defs>
</svg>