<svg width="17" height="14" viewBox="0 0 17 14" fill="none" xmlns="http://www.w3.org/2000/svg">
<g clip-path="url(#clip0_8_503)">
<path d="M7.06721 11L9.71435 13.17C9.87677 13.3071 10.0798 13.4069 10.3035 13.4595C10.5271 13.5121 10.7635 13.5158 10.9894 13.47C11.2166 13.4265 11.4264 13.3356 11.5987 13.206C11.771 13.0764 11.8998 12.9125 11.9729 12.73L16.3201 2.00002C16.4108 1.79897 16.4295 1.5807 16.374 1.37114C16.3185 1.16159 16.1911 0.969571 16.0069 0.817909C15.8228 0.666247 15.5896 0.561322 15.3351 0.515606C15.0807 0.46989 14.8156 0.485305 14.5715 0.56002L1.54221 4.14002C1.31302 4.20449 1.10888 4.3182 0.950913 4.46939C0.792942 4.62058 0.686863 4.80377 0.64364 5.00002C0.599026 5.17851 0.608958 5.36333 0.672543 5.53788C0.736128 5.71243 0.851374 5.87123 1.00793 6.00002L4.33507 8.74002L4.22578 12.21L7.06721 11Z" stroke="#7D848D" stroke-linecap="round" stroke-linejoin="round"/>
<path d="M15.9314 0.780029L4.33496 8.74003" stroke="#7D848D" stroke-linecap="round" stroke-linejoin="round"/>
</g>
<defs>
<clipPath id="clip0_8_503">
<rect width="17" height="14" fill="white"/>
</clipPath>
</defs>
</svg>