<svg width="20" height="20" viewBox="0 0 20 20" fill="none" xmlns="http://www.w3.org/2000/svg">
<path d="M9.99995 19.2857C15.1283 19.2857 19.2857 15.1284 19.2857 10C19.2857 4.87165 15.1283 0.714294 9.99995 0.714294C4.87159 0.714294 0.714233 4.87165 0.714233 10C0.714233 15.1284 4.87159 19.2857 9.99995 19.2857Z" stroke="#7D848D" stroke-linecap="round" stroke-linejoin="round"/>
<path d="M1.42847 13.5714H3.92847C4.59151 13.5714 5.22739 13.308 5.69623 12.8392C6.16507 12.3703 6.42847 11.7345 6.42847 11.0714V8.92856C6.42847 8.26551 6.69186 7.62963 7.1607 7.16079C7.62954 6.69195 8.26543 6.42856 8.92847 6.42856C9.59151 6.42856 10.2274 6.16516 10.6962 5.69632C11.1651 5.22748 11.4285 4.5916 11.4285 3.92856V0.81427" stroke="#7D848D" stroke-linecap="round" stroke-linejoin="round"/>
<path d="M19.2856 9.85713C18.5703 9.486 17.7771 9.29015 16.9713 9.28571H13.9285C13.2654 9.28571 12.6295 9.5491 12.1607 10.0179C11.6919 10.4868 11.4285 11.1227 11.4285 11.7857C11.4285 12.4487 11.6919 13.0846 12.1607 13.5535C12.6295 14.0223 13.2654 14.2857 13.9285 14.2857C14.4021 14.2857 14.8563 14.4738 15.1912 14.8087C15.526 15.1436 15.7142 15.5978 15.7142 16.0714V17.3143" stroke="#7D848D" stroke-linecap="round" stroke-linejoin="round"/>
</svg>